# xmcd
#
# Track frame offsets:
#	150
#	11240
#	25701
#	39502
#	53922
#	67077
#	86201
#	98066
#	116056
#	124548
#	135105
#	147809
#	168700
#	189384
#	200813
#
# Disc length: 2795 seconds
#
# Revision: 0
# Processed by: cddbd v1.5.2PL0 Copyright (c) Steve Scherf et al.
# Submitted via: EasyCDDAExtractor 9.0.0.1
#
DISCID=d30ae90f
DTITLE=Kay Starr - Capitol Collector Series
DYEAR=2007
DGENRE=Country
TTITLE0=Crazy Rhythmn
TTITLE1=Exactly Like You
TTITLE2=Good For Nothing Joe
TTITLE3=I Guess I'll Have To Change My Plans
TTITLE4=Sit Right Down And Write Myself A Letter
TTITLE5=I'm Through With Love
TTITLE6=Limelight Blues
TTITLE7=Mean To Me
TTITLE8=Them There Eyes
TTITLE9=What Can I Say After I Say I'm Sorry
TTITLE10=What Is This Thing Called Love
TTITLE11=When A Woman Loves A Man
TTITLE12=You've Changed
TTITLE13=After You've Gone
TTITLE14=Ain't Misbehaving
EXTD=
EXTT0=
EXTT1=
EXTT2=
EXTT3=
EXTT4=
EXTT5=
EXTT6=
EXTT7=
EXTT8=
EXTT9=
EXTT10=
EXTT11=
EXTT12=
EXTT13=
EXTT14=
PLAYORDER=
